#!OML:ASF G:\JayActor3\Patient Classification 1\Patient 1\Session 2\male.ASF
:FULLY-SPECIFIED
:DEGREES
1517
root -17.7571 17.2904 -3.04622 203.401 -85.0559 -185.576
lowerback 14.0113 -3.28355 -8.27461
upperback 6.16876 -5.69085 -0.7058
thorax -0.555284 -3.11685 4.66919
lowerneck -9.74457 2.56492 -0.671195
upperneck -12.6207 3.26603 5.27335
head -2.49645 1.27025 1.85331
rclavicle 3.10104e-014 -6.67916e-014
rhumerus -26.7749 -1.09767 -50.9885
rradius 46.2196
rwrist -2.65811
rhand -33.303 9.47484
rfingers 7.12502
rthumb -6.50672 -20.4052
lclavicle 3.10104e-014 -6.67916e-014
lhumerus 31.829 -13.5696 42.5636
lradius 84.6562
lwrist 25.034
lhand -22.9678 16.1395
lfingers 7.12502
lthumb 3.47422 46.0909
rfemur -58.6297 2.07221 16.4397
rtibia 59.9203
rfoot -30.3309 -14.3725
rtoes 12.5157
lfemur -6.39266 0.676145 -23.0288
ltibia 9.28629
lfoot -9.22859 21.9541
ltoes -13.1127
1518
root -17.931 17.2759 -3.05205 211.65 -85.5782 -193.989
lowerback 13.6443 -3.57394 -8.19323
upperback 6.02497 -6.01882 -0.681315
thorax -0.471747 -3.27135 4.66149
lowerneck -10.0898 2.4922 -0.745593
upperneck -12.2264 3.15782 5.20829
head -2.30115 1.23841 1.84387
rclavicle 4.05521e-014 -1.43125e-014
rhumerus -27.5954 -1.9991 -50.871
rradius 46.0374
rwrist -2.75022
rhand -33.1876 9.34363
rfingers 7.12502
rthumb -6.39529 -20.5398
lclavicle 4.05521e-014 -1.43125e-014
lhumerus 31.6829 -14.8815 42.8995
lradius 85.2453
lwrist 25.1562
lhand -22.7459 16.0945
lfingers 7.12502
lthumb 3.68849 46.0423
rfemur -58.2464 2.36139 15.5442
rtibia 57.165
rfoot -30.5863 -14.0526
rtoes 12.7156
lfemur -4.57569 0.677171 -23.465
ltibia 7.21065
lfoot -8.05432 21.5227
ltoes -14.0396
1519
root -18.1097 17.2603 -3.06101 222.156 -86.0227 -204.722
lowerback 13.283 -3.85908 -8.1224
upperback 5.88342 -6.34351 -0.655069
thorax -0.387847 -3.42504 4.65831
lowerneck -10.4504 2.41141 -0.815683
upperneck -11.7398 3.0417 5.15812
head -2.07425 1.20554 1.83815
rclavicle -3.57812e-014 3.33958e-014
rhumerus -28.4096 -2.92167 -50.7293
rradius 45.8565
rwrist -2.80395
rhand -33.0704 9.21574
rfingers 7.12502
rthumb -6.28216 -20.6711
lclavicle -3.57812e-014 3.33958e-014
lhumerus 31.3995 -16.3793 43.2069
lradius 85.8387
lwrist 25.3109
lhand -22.4067 16.0593
lfingers 7.12502
lthumb 4.01607 46.0012
rfemur -57.5942 2.74049 14.5057
rtibia 54.2821
rfoot -30.9109 -13.8167
rtoes 12.7626
lfemur -1.94881 0.635067 -23.9077
ltibia 3.80249
lfoot -6.23517 21.1736
ltoes -14.9919
1520
root -18.2937 17.2426 -3.07332 235.097 -86.3237 -217.965
lowerback 12.9333 -4.13442 -8.07291
upperback 5.74851 -6.66082 -0.628462
thorax -0.30137 -3.57646 4.66407
lowerneck -10.8236 2.32212 -0.882533
upperneck -11.1597 2.91701 5.11925
head -1.81648 1.17137 1.83536
rclavicle 6.04305e-014 -2.06736e-014
rhumerus -29.2159 -3.85383 -50.5612
rradius 45.692
rwrist -2.78011
rhand -32.9531 9.11339
rfingers 7.12502
rthumb -6.16896 -20.7768
lclavicle 6.04305e-014 -2.06736e-014
lhumerus 30.9753 -18.0309 43.5132
lradius 86.4206
lwrist 25.4675
lhand -21.9769 16.0252
lfingers 7.12502
lthumb 4.43106 45.9589
rfemur -56.6887 3.20131 13.3568
rtibia 51.3634
rfoot -31.2821 -13.6487
rtoes 12.6597
lfemur 0.996001 0.564683 -24.3627
ltibia 1.59028e-014
lfoot -4.21802 20.8146
ltoes -16.0171
1521
root -18.4834 17.2222 -3.08892 249.803 -86.4298 -233.035
lowerback 12.5771 -4.4027 -8.03853
upperback 5.61789 -6.97133 -0.597916
thorax -0.205041 -3.72585 4.67751
lowerneck -11.2105 2.22588 -0.95125
upperneck -10.4835 2.78604 5.08979
head -1.52765 1.13722 1.83623
rclavicle 4.77083e-014 1.74931e-014
rhumerus -30.0093 -4.77752 -50.3643
rradius 45.5662
rwrist -2.66815
rhand -32.8128 9.01998
rfingers 7.12502
rthumb -6.03344 -20.8741
lclavicle 4.77083e-014 1.74931e-014
lhumerus 30.4087 -19.7986 43.8479
lradius 86.9756
lwrist 25.588
lhand -21.4585 15.99
lfingers 7.12502
lthumb 4.93163 45.9126
rfemur -55.5762 3.70536 12.1615
rtibia 48.5114
rfoot -31.6284 -13.5764
rtoes 12.4177
lfemur 1.96098 0.476858 -24.6938
ltibia -1.90833e-014
lfoot -4.00322 20.1379
ltoes -17.0379
